<svg width="16" height="20" viewBox="0 0 16 20" fill="none" xmlns="http://www.w3.org/2000/svg">
<path d="M8 0C8 6 16 8 16 12.5C16 17 12.4183 20 8 20C3.58172 20 -7.37607e-07 17 0 12.5C0.5 9 2.5 7.5 4.5 6C6 6 4 13.5 7 12C9.23607 10.882 4.5 0 8 0ZM11.3467 14.0566C11.1852 14.2659 10.9988 14.4542 10.7891 14.6201C10.1194 15.1496 9.26422 15.4294 8.5791 15.6426C7.82156 15.8783 7.22545 16.0469 6.74414 16.3174C6.31477 16.5588 6.07388 16.8299 5.9707 17.2422C5.81879 17.8498 6.00526 18.2117 6.32812 18.4785C6.66416 18.7559 7.1889 18.9468 7.75488 18.9902L8 19C9.86613 18.9998 10.9459 17.7251 11.3203 16.1445C11.4963 15.4012 11.49 14.6548 11.3467 14.0566ZM7.70801 3.16504C7.76741 3.83574 7.87877 4.59968 8.0127 5.41992C8.23922 6.80726 8.5265 8.34808 8.60547 9.58984C8.64498 10.2112 8.63931 10.8403 8.5166 11.3838C8.39581 11.9187 8.11479 12.5608 7.44727 12.8945C6.96278 13.1368 6.40432 13.2882 5.83984 13.1406C5.24592 12.9854 4.88055 12.5632 4.66895 12.1592C4.46508 11.7699 4.36026 11.3216 4.29785 10.9111C4.23376 10.4895 4.20462 10.0354 4.18848 9.59961C4.15896 8.80278 4.16446 8.12395 4.12695 7.54395C2.59546 8.76151 1.37819 10.0665 1.00098 12.5674C1.02678 15.3703 2.66311 17.5199 5.08691 18.4678C4.92628 18.1045 4.86947 17.6771 4.95996 17.1846L5 17C5.75006 14.0002 11 15.5 11 12C12.685 12.6745 12.9798 16.073 11.4795 18.2178C13.6069 17.1626 15 15.1107 15 12.5C15 11.6968 14.6498 10.9475 13.9766 10.127C13.2867 9.28614 12.3639 8.49235 11.3281 7.55371C10.0238 6.37169 8.55554 4.97916 7.70801 3.16504Z" fill="black"/>
</svg>
