<svg width="20" height="20" viewBox="0 0 20 20" fill="none" xmlns="http://www.w3.org/2000/svg">
<path d="M19.5 10C19.5 15.2467 15.2467 19.5 10 19.5M19.5 10C19.5 4.75329 15.2467 0.5 10 0.5M19.5 10H0.5M10 19.5C4.75329 19.5 0.5 15.2467 0.5 10M10 19.5C13.148 19.5 15.7 15.2467 15.7 10C15.7 4.75329 13.148 0.5 10 0.5M10 19.5C6.85198 19.5 4.3 15.2467 4.3 10C4.3 4.75329 6.85198 0.5 10 0.5M0.5 10C0.5 4.75329 4.75329 0.5 10 0.5M3.43943 16.1525C4.28755 15.2547 5.31092 14.5405 6.44619 14.0542C7.58145 13.5678 8.80446 13.3197 10.0395 13.3251C11.2745 13.3305 12.4953 13.5893 13.6263 14.0856C14.7573 14.5818 15.7743 15.3049 16.6146 16.2101M3.4847 3.88659C4.32036 4.796 5.33378 5.52422 6.46223 6.02616C7.59068 6.52811 8.81015 6.7931 10.0451 6.80473C11.2801 6.81636 12.5044 6.57438 13.6421 6.09378C14.7798 5.61318 15.8067 4.90418 16.6594 4.01067M10 19.025V0.975" stroke="black" stroke-linecap="round" stroke-linejoin="round"/>
</svg>
