<svg width="10" height="16" viewBox="0 0 10 16" fill="none" xmlns="http://www.w3.org/2000/svg">
<mask id="path-1-inside-1_30_309" fill="white">
<path d="M5 0C7.76142 0 10 2.23858 10 5C10 10 5 16 5 16C5 16 0 10 0 5C0 2.23858 2.23858 0 5 0ZM5 3C3.61929 3 2.5 4.11929 2.5 5.5C2.5 6.88071 3.61929 8 5 8C6.38071 8 7.5 6.88071 7.5 5.5C7.5 4.11929 6.38071 3 5 3Z"/>
</mask>
<path d="M5 16L4.23178 16.6402L5 17.562L5.76822 16.6402L5 16ZM0 5H1H0ZM5 0V1C7.20914 1 9 2.79086 9 5H10H11C11 1.68629 8.31371 -1 5 -1V0ZM10 5H9C9 7.21911 7.86998 9.77372 6.63807 11.868C6.03396 12.895 5.42856 13.7729 4.97422 14.3939C4.74741 14.7038 4.55918 14.9485 4.42883 15.1142C4.36368 15.197 4.31306 15.2601 4.2794 15.3016C4.26257 15.3224 4.24998 15.3377 4.24194 15.3475C4.23792 15.3524 4.23504 15.3559 4.23333 15.3579C4.23248 15.359 4.23192 15.3596 4.23166 15.36C4.23153 15.3601 4.23147 15.3602 4.23149 15.3602C4.2315 15.3601 4.23157 15.3601 4.23158 15.3601C4.23167 15.3599 4.23178 15.3598 5 16C5.76822 16.6402 5.76837 16.64 5.76854 16.6398C5.76862 16.6397 5.7688 16.6395 5.76896 16.6393C5.76929 16.6389 5.76969 16.6384 5.77016 16.6379C5.77111 16.6367 5.77237 16.6352 5.77392 16.6333C5.77702 16.6296 5.78131 16.6244 5.78675 16.6178C5.79763 16.6045 5.81312 16.5856 5.83291 16.5612C5.87248 16.5124 5.92929 16.4416 6.00086 16.3506C6.14394 16.1687 6.34634 15.9055 6.58828 15.5749C7.07144 14.9146 7.71604 13.98 8.36193 12.882C9.63002 10.7263 11 7.78089 11 5H10ZM5 16C5.76822 15.3598 5.76833 15.3599 5.76842 15.3601C5.76843 15.3601 5.7685 15.3601 5.76851 15.3602C5.76853 15.3602 5.76847 15.3601 5.76834 15.36C5.76808 15.3596 5.76752 15.359 5.76667 15.3579C5.76496 15.3559 5.76208 15.3524 5.75806 15.3475C5.75002 15.3377 5.73743 15.3224 5.7206 15.3016C5.68694 15.2601 5.63632 15.197 5.57117 15.1142C5.44082 14.9485 5.25259 14.7038 5.02578 14.3939C4.57144 13.7729 3.96604 12.895 3.36193 11.868C2.13002 9.77372 1 7.21911 1 5H0H-1C-1 7.78089 0.369981 10.7263 1.63807 12.882C2.28396 13.98 2.92856 14.9146 3.41172 15.5749C3.65366 15.9055 3.85606 16.1687 3.99914 16.3506C4.07071 16.4416 4.12752 16.5124 4.16709 16.5612C4.18688 16.5856 4.20237 16.6045 4.21325 16.6178C4.21869 16.6244 4.22298 16.6296 4.22608 16.6333C4.22763 16.6352 4.22889 16.6367 4.22984 16.6379C4.23031 16.6384 4.23071 16.6389 4.23104 16.6393C4.2312 16.6395 4.23138 16.6397 4.23146 16.6398C4.23163 16.64 4.23178 16.6402 5 16ZM0 5H1C1 2.79086 2.79086 1 5 1V0V-1C1.68629 -1 -1 1.68629 -1 5H0ZM5 3V2C3.067 2 1.5 3.567 1.5 5.5H2.5H3.5C3.5 4.67157 4.17157 4 5 4V3ZM2.5 5.5H1.5C1.5 7.433 3.067 9 5 9V8V7C4.17157 7 3.5 6.32843 3.5 5.5H2.5ZM5 8V9C6.933 9 8.5 7.433 8.5 5.5H7.5H6.5C6.5 6.32843 5.82843 7 5 7V8ZM7.5 5.5H8.5C8.5 3.567 6.933 2 5 2V3V4C5.82843 4 6.5 4.67157 6.5 5.5H7.5Z" fill="black" mask="url(#path-1-inside-1_30_309)"/>
</svg>
