<svg width="12" height="11" viewBox="0 0 12 11" fill="none" xmlns="http://www.w3.org/2000/svg">
<path d="M4.32483 1.37988L1.8512 3.5H8.99963V3.53516C9.74305 3.64243 10.4368 3.98802 10.9742 4.52539C11.6306 5.18177 11.9996 6.07174 11.9996 7C11.9996 7.92826 11.6306 8.81823 10.9742 9.47461C10.4368 10.0119 9.74299 10.3566 8.99963 10.4639V10.5H2.49963V9.5H8.49963C9.16259 9.5 9.79839 9.2363 10.2672 8.76758C10.7361 8.29874 10.9996 7.66304 10.9996 7C10.9996 6.33696 10.7361 5.70126 10.2672 5.23242C9.85692 4.82221 9.31902 4.56948 8.7467 4.5127L8.49963 4.5H1.70667L4.35315 7.14648L3.64612 7.85352L0.146118 4.35352C0.0477583 4.25505 -0.00570355 4.11955 -0.000366211 3.98047C0.00506152 3.84151 0.0689046 3.71068 0.174438 3.62012L3.67444 0.620117L4.32483 1.37988Z" fill="black"/>
</svg>
