<svg width="20" height="20" viewBox="0 0 20 20" fill="none" xmlns="http://www.w3.org/2000/svg">
<path fill-rule="evenodd" clip-rule="evenodd" d="M11.7793 3.22852C12.3998 3.39111 12.9857 3.63807 13.5264 3.9541L16.0107 2.5752L17.4248 3.98926L16.0449 6.47266C16.3611 7.01331 16.6078 7.59925 16.7705 8.21973L19.5 9V11L16.7705 11.7793C16.6079 12.3998 16.361 12.9857 16.0449 13.5264L17.4248 16.0107L16.0107 17.4248L13.5264 16.0449C12.9857 16.361 12.3998 16.6079 11.7793 16.7705L11 19.5H9L8.21973 16.7705C7.59925 16.6078 7.01331 16.3611 6.47266 16.0449L3.98926 17.4248L2.5752 16.0107L3.9541 13.5264C3.63807 12.9857 3.39111 12.3998 3.22852 11.7793L0.5 11V9L3.22852 8.21973C3.39118 7.59933 3.63802 7.01326 3.9541 6.47266L2.5752 3.98926L3.98926 2.5752L6.47266 3.9541C7.01326 3.63802 7.59933 3.39118 8.21973 3.22852L9 0.5H11L11.7793 3.22852ZM10 7.5C8.61929 7.5 7.5 8.61929 7.5 10C7.5 11.3807 8.61929 12.5 10 12.5C11.3807 12.5 12.5 11.3807 12.5 10C12.5 8.61929 11.3807 7.5 10 7.5Z" stroke="black" stroke-linejoin="round"/>
</svg>
