<svg width="16" height="18" viewBox="0 0 16 18" fill="none" xmlns="http://www.w3.org/2000/svg">
<path d="M8.25 0.567383L15.1777 4.56738L15.4277 4.71094V13.2891L15.1777 13.4326L8.25 17.4326L8 17.5771L7.75 17.4326L0.822266 13.4326L0.572266 13.2891V4.71094L0.822266 4.56738L7.75 0.567383L8 0.422852L8.25 0.567383ZM4.30469 7.46289L1.57227 5.90234V12.7109L7.5 16.1338V12.9678C5.52692 12.7217 4 11.0398 4 9C4 8.45553 4.10767 7.936 4.30469 7.46289ZM11.6934 7.46387C11.8903 7.93694 12 8.45558 12 9C12 11.0398 10.4731 12.7217 8.5 12.9678V16.1338L14.4277 12.7109V5.90234L11.6934 7.46387ZM8 6C6.34315 6 5 7.34315 5 9C5 10.6569 6.34315 12 8 12C9.65685 12 11 10.6569 11 9C11 7.34315 9.65685 6 8 6ZM4.80176 6.59473C5.53172 5.62565 6.6933 5 8 5C9.30628 5 10.4663 5.62618 11.1963 6.59473L13.959 5.01758L8 1.57617L2.04004 5.01758L4.80176 6.59473Z" fill="black"/>
</svg>
