<svg width="20" height="20" viewBox="0 0 20 20" fill="none" xmlns="http://www.w3.org/2000/svg">
<path d="M10.5 20H9.5V14.9746C9.66448 14.9909 9.83123 15 10 15C10.1688 15 10.3355 14.9909 10.5 14.9746V20ZM6.12793 13.1641C6.33945 13.4226 6.57648 13.6595 6.83496 13.8711L3.35352 17.3535L2.64648 16.6465L6.12793 13.1641ZM17.3535 16.6465L16.6465 17.3535L13.1641 13.8711C13.4226 13.6595 13.6595 13.4226 13.8711 13.1641L17.3535 16.6465ZM10 6C12.2091 6 14 7.79086 14 10C14 12.2091 12.2091 14 10 14C7.79086 14 6 12.2091 6 10C6 7.79086 7.79086 6 10 6ZM10 7C8.34315 7 7 8.34315 7 10C7 11.6569 8.34315 13 10 13C11.6569 13 13 11.6569 13 10C13 8.34315 11.6569 7 10 7ZM5.02441 9.5C5.00809 9.66444 5 9.83126 5 10C5 10.1687 5.00809 10.3356 5.02441 10.5H0V9.5H5.02441ZM20 10.5H14.9756C14.9919 10.3356 15 10.1687 15 10C15 9.83126 14.9919 9.66444 14.9756 9.5H20V10.5ZM6.83496 6.12793C6.57649 6.33946 6.33946 6.57649 6.12793 6.83496L2.64648 3.35352L3.35352 2.64648L6.83496 6.12793ZM17.3535 3.35352L13.8711 6.83496C13.6595 6.57648 13.4226 6.33945 13.1641 6.12793L16.6465 2.64648L17.3535 3.35352ZM10.5 5.02441C10.3356 5.00809 10.1687 5 10 5C9.83126 5 9.66444 5.00809 9.5 5.02441V0H10.5V5.02441Z" fill="black"/>
</svg>
