<svg width="11" height="19" viewBox="0 0 11 19" fill="none" xmlns="http://www.w3.org/2000/svg">
<path d="M6.5 8.5H6C6 8.77614 6.22386 9 6.5 9V8.5ZM10.5 8.5L10.9287 8.75725C11.0214 8.60278 11.0239 8.41041 10.9351 8.25365C10.8463 8.0969 10.6801 8 10.5 8V8.5ZM4.5 18.5H4C4 18.7247 4.14995 18.9219 4.36653 18.9819C4.58312 19.0418 4.81312 18.95 4.92875 18.7572L4.5 18.5ZM4.5 10.5H5C5 10.2239 4.77614 10 4.5 10V10.5ZM0.5 10.5L0.0712535 10.2428C-0.0214257 10.3972 -0.0238528 10.5896 0.0649 10.7463C0.153653 10.9031 0.319864 11 0.5 11L0.5 10.5ZM6.5 0.5H7C7 0.275259 6.85005 0.0781334 6.63347 0.0181425C6.41688 -0.0418483 6.18688 0.0500385 6.07125 0.242752L6.5 0.5ZM6.5 8.5V9H10.5V8.5V8H6.5V8.5ZM10.5 8.5L10.0713 8.24275L4.07125 18.2428L4.5 18.5L4.92875 18.7572L10.9287 8.75725L10.5 8.5ZM4.5 18.5H5V10.5H4.5H4V18.5H4.5ZM4.5 10.5V10H0.5V10.5V11H4.5V10.5ZM0.5 10.5L0.928746 10.7572L6.92875 0.757248L6.5 0.5L6.07125 0.242752L0.0712535 10.2428L0.5 10.5ZM6.5 0.5H6V8.5H6.5H7V0.5H6.5Z" fill="black"/>
</svg>
